<svg xmlns="http://www.w3.org/2000/svg" width="25" height="25" viewBox="0 0 25 25">
  <g id="Group_17874" data-name="Group 17874" transform="translate(-998 56)">
    <g id="icon_x2F_16px_x2F_medium-priority-" transform="translate(1003 -51)">
      <g id="Group_41" data-name="Group 41">
        <path id="Path_47" data-name="Path 47" d="M3,4H13a.945.945,0,0,1,1,1,.945.945,0,0,1-1,1H3A.945.945,0,0,1,2,5,.945.945,0,0,1,3,4Zm0,6H13a.945.945,0,0,1,1,1,.945.945,0,0,1-1,1H3a.945.945,0,0,1-1-1A.945.945,0,0,1,3,10Z" fill="#ffab00"/>
      </g>
    </g>
    <rect id="Rectangle_149476" data-name="Rectangle 149476" width="25" height="25" transform="translate(998 -56)" fill="none"/>
  </g>
</svg>
